<svg id="Layer_1" data-name="Layer 1" xmlns="http://www.w3.org/2000/svg" xmlns:xlink="http://www.w3.org/1999/xlink" viewBox="0 0 512 512">
  <defs>
    <style>
      .cls-1, .cls-7 {
        fill: #565656;
      }

      .cls-2, .cls-3, .cls-6, .cls-8 {
        fill: none;
      }

      .cls-2, .cls-3, .cls-4, .cls-6, .cls-9 {
        stroke: #b5aeae;
      }

      .cls-10, .cls-11, .cls-12, .cls-13, .cls-14, .cls-15, .cls-16, .cls-17, .cls-18, .cls-19, .cls-2, .cls-20, .cls-21, .cls-22, .cls-23, .cls-24, .cls-25, .cls-26, .cls-27, .cls-28, .cls-29, .cls-3, .cls-4, .cls-5, .cls-6, .cls-7, .cls-9 {
        stroke-miterlimit: 10;
      }

      .cls-10, .cls-11, .cls-12, .cls-13, .cls-14, .cls-15, .cls-16, .cls-17, .cls-18, .cls-19, .cls-2, .cls-20, .cls-21, .cls-22, .cls-23, .cls-24, .cls-25, .cls-26, .cls-27, .cls-28, .cls-29, .cls-3, .cls-4, .cls-6, .cls-7 {
        stroke-width: 4px;
      }

      .cls-3 {
        stroke-dasharray: 17 5;
      }

      .cls-4, .cls-9 {
        fill: #b5aeae;
      }

      .cls-10, .cls-11, .cls-12, .cls-13, .cls-14, .cls-15, .cls-16, .cls-17, .cls-18, .cls-19, .cls-20, .cls-21, .cls-22, .cls-23, .cls-24, .cls-25, .cls-26, .cls-27, .cls-28, .cls-29, .cls-5, .cls-7 {
        stroke: #565656;
      }

      .cls-5 {
        stroke-width: 5.5px;
        fill: url(#linear-gradient);
      }

      .cls-6 {
        stroke-linecap: round;
        stroke-dasharray: 0 17.57;
      }

      .cls-10 {
        fill: url(#linear-gradient-2);
      }

      .cls-11 {
        fill: url(#linear-gradient-3);
      }

      .cls-12 {
        fill: url(#linear-gradient-4);
      }

      .cls-13 {
        fill: url(#linear-gradient-5);
      }

      .cls-14 {
        fill: url(#linear-gradient-6);
      }

      .cls-15 {
        fill: url(#linear-gradient-7);
      }

      .cls-16 {
        fill: url(#linear-gradient-8);
      }

      .cls-17 {
        fill: url(#linear-gradient-9);
      }

      .cls-18 {
        fill: url(#linear-gradient-10);
      }

      .cls-19 {
        fill: url(#linear-gradient-11);
      }

      .cls-20 {
        fill: url(#linear-gradient-12);
      }

      .cls-21 {
        fill: url(#linear-gradient-13);
      }

      .cls-22 {
        fill: url(#linear-gradient-14);
      }

      .cls-23 {
        fill: url(#linear-gradient-15);
      }

      .cls-24 {
        fill: url(#linear-gradient-16);
      }

      .cls-25 {
        fill: url(#linear-gradient-17);
      }

      .cls-26 {
        fill: url(#linear-gradient-18);
      }

      .cls-27 {
        fill: url(#linear-gradient-19);
      }

      .cls-28 {
        fill: url(#linear-gradient-20);
      }

      .cls-29 {
        fill: url(#linear-gradient-21);
      }
    </style>
    <linearGradient id="linear-gradient" x1="279.81" y1="218.73" x2="269" y2="194.85" gradientUnits="userSpaceOnUse">
      <stop offset="0" stop-color="#fff"/>
      <stop offset="0.04" stop-color="#dbeffd"/>
      <stop offset="0.09" stop-color="#b6defb"/>
      <stop offset="0.15" stop-color="#96d0fa"/>
      <stop offset="0.21" stop-color="#7bc4f8"/>
      <stop offset="0.28" stop-color="#64baf7"/>
      <stop offset="0.36" stop-color="#54b2f6"/>
      <stop offset="0.47" stop-color="#48adf5"/>
      <stop offset="0.61" stop-color="#41aaf5"/>
      <stop offset="1" stop-color="#3fa9f5"/>
    </linearGradient>
    <linearGradient id="linear-gradient-2" x1="90.38" y1="79.66" x2="75.13" y2="45.06" gradientUnits="userSpaceOnUse">
      <stop offset="0" stop-color="#d6d6d6"/>
      <stop offset="0.02" stop-color="#c7d3da"/>
      <stop offset="0.07" stop-color="#a8cde3"/>
      <stop offset="0.13" stop-color="#8cc7eb"/>
      <stop offset="0.19" stop-color="#76c3f1"/>
      <stop offset="0.27" stop-color="#65bff6"/>
      <stop offset="0.36" stop-color="#5abdfa"/>
      <stop offset="0.49" stop-color="#53bbfb"/>
      <stop offset="0.85" stop-color="#51bbfc"/>
    </linearGradient>
    <linearGradient id="linear-gradient-3" x1="143.58" y1="133.08" x2="128.33" y2="98.48" xlink:href="#linear-gradient-2"/>
    <linearGradient id="linear-gradient-4" x1="136.31" y1="153.22" x2="121.06" y2="118.62" xlink:href="#linear-gradient-2"/>
    <linearGradient id="linear-gradient-5" x1="109.94" y1="127.06" x2="94.69" y2="92.46" xlink:href="#linear-gradient-2"/>
    <linearGradient id="linear-gradient-6" x1="163.14" y1="180.47" x2="147.89" y2="145.87" xlink:href="#linear-gradient-2"/>
    <linearGradient id="linear-gradient-7" x1="117.21" y1="106.92" x2="101.96" y2="72.31" xlink:href="#linear-gradient-2"/>
    <linearGradient id="linear-gradient-8" x1="83.11" y1="99.81" x2="67.86" y2="65.2" xlink:href="#linear-gradient-2"/>
    <linearGradient id="linear-gradient-9" x1="196.79" y1="186.49" x2="181.53" y2="151.89" xlink:href="#linear-gradient-2"/>
    <linearGradient id="linear-gradient-10" x1="189.51" y1="206.63" x2="174.26" y2="172.03" xlink:href="#linear-gradient-2"/>
    <linearGradient id="linear-gradient-11" x1="170.42" y1="160.33" x2="155.16" y2="125.73" xlink:href="#linear-gradient-2"/>
    <linearGradient id="linear-gradient-12" x1="352.17" y1="341.45" x2="336.92" y2="306.85" xlink:href="#linear-gradient-2"/>
    <linearGradient id="linear-gradient-13" x1="405.37" y1="394.86" x2="390.12" y2="360.26" xlink:href="#linear-gradient-2"/>
    <linearGradient id="linear-gradient-14" x1="398.1" y1="415" x2="382.84" y2="380.4" xlink:href="#linear-gradient-2"/>
    <linearGradient id="linear-gradient-15" x1="371.73" y1="388.84" x2="356.47" y2="354.24" xlink:href="#linear-gradient-2"/>
    <linearGradient id="linear-gradient-16" x1="424.93" y1="442.26" x2="409.68" y2="407.65" xlink:href="#linear-gradient-2"/>
    <linearGradient id="linear-gradient-17" x1="379" y1="368.7" x2="363.75" y2="334.1" xlink:href="#linear-gradient-2"/>
    <linearGradient id="linear-gradient-18" x1="344.89" y1="361.59" x2="329.64" y2="326.99" xlink:href="#linear-gradient-2"/>
    <linearGradient id="linear-gradient-19" x1="458.57" y1="448.28" x2="443.32" y2="413.67" xlink:href="#linear-gradient-2"/>
    <linearGradient id="linear-gradient-20" x1="451.3" y1="468.42" x2="436.05" y2="433.81" xlink:href="#linear-gradient-2"/>
    <linearGradient id="linear-gradient-21" x1="432.2" y1="422.12" x2="416.95" y2="387.51" xlink:href="#linear-gradient-2"/>
  </defs>
  <title>Artboard 1</title>
  <g>
    <path class="cls-1" d="M354.3,223.44l-8.51-8.51,8.88-8.88a8.11,8.11,0,0,0,0-11.49L325.14,165a8.13,8.13,0,0,0-11.49,0l-8.89,8.89-9.56-9.57a14.29,14.29,0,0,0-20.21,0L157.65,281.68a14.29,14.29,0,0,0,0,20.21l59.1,59.1a14.28,14.28,0,0,0,20.2,0L354.3,243.65A14.29,14.29,0,0,0,354.3,223.44Z"/>
    <rect class="cls-1" x="121.27" y="258.16" width="295.57" height="9" transform="translate(264.53 -113.32) rotate(45)"/>
    <g>
      <line class="cls-2" x1="157.33" y1="282" x2="237.1" y2="360.85"/>
      <line class="cls-3" x1="163.73" y1="275.66" x2="243.5" y2="354.51"/>
      <g>
        <rect class="cls-4" x="236.92" y="202.49" width="112.16" height="46.3" transform="translate(245.37 -141.09) rotate(45)"/>
        <circle class="cls-5" cx="274.61" cy="207.25" r="16.78"/>
        <circle class="cls-6" cx="274.61" cy="207.25" r="16.78"/>
      </g>
    </g>
  </g>
  <g id="antenne">
    <ellipse class="cls-1" cx="105.07" cy="414.57" rx="8.59" ry="8.72"/>
    <line class="cls-7" x1="108.88" y1="410.98" x2="142.23" y2="377.13"/>
    <g>
      <polygon class="cls-8" points="108.89 410.98 175.58 410.98 108.89 343.28 108.89 410.98"/>
      <path class="cls-1" d="M125.72,326.5a52,52,0,0,0-20.62,12.88h33.5Z"/>
      <path class="cls-1" d="M144.46,339.38,130.28,325.2c-.81.19-1.61.4-2.4.62l13.55,13.56Z"/>
      <path class="cls-1" d="M179.24,339.38a51.91,51.91,0,0,0-34.63-15.51l15.51,15.51Z"/>
      <polygon class="cls-1" points="141.57 339.51 179.29 377.24 179.29 374.21 144.59 339.51 141.57 339.51"/>
      <polygon class="cls-1" points="179.29 339.51 160.26 339.51 179.29 358.54 179.29 339.51"/>
      <polygon class="cls-1" points="138.74 339.51 108.89 339.51 108.89 343.28 175.58 410.98 179.29 410.98 179.29 380.07 138.74 339.51"/>
      <path class="cls-1" d="M179.29,411h0v3.73A53.15,53.15,0,0,0,192.23,393l-12.94-12.94Z"/>
      <path class="cls-1" d="M179.29,339.51v19l15.24,15.24a53.43,53.43,0,0,0-15.24-34.35v.08Z"/>
      <polygon class="cls-1" points="179.27 414.73 179.28 414.71 179.26 414.71 179.27 414.73"/>
      <path class="cls-1" d="M179.29,377.24l13.57,13.57c.21-.82.4-1.63.58-2.45l-14.15-14.15Z"/>
      <path class="cls-7" d="M179.29,339.43v-.05h0l0,0Z"/>
      <polygon class="cls-7" points="108.89 410.98 108.89 343.28 105.07 339.41 105.07 414.71 179.26 414.71 175.58 410.98 108.89 410.98"/>
      <path class="cls-7" d="M105.07,339.38v0l0,0Z"/>
      <polygon class="cls-7" points="179.29 414.71 179.29 414.71 179.28 414.71 179.29 414.71"/>
      <polygon class="cls-7" points="144.59 339.51 144.46 339.38 141.43 339.38 141.57 339.51 144.59 339.51"/>
      <polygon class="cls-7" points="175.58 410.98 179.26 414.71 179.28 414.71 179.29 414.71 179.29 410.98 175.58 410.98"/>
      <path class="cls-7" d="M108.88,339.51h29.86l-.14-.13H105.1l0,0,3.81,3.87Z"/>
      <path class="cls-7" d="M160.26,339.51h19v-.08l0,0,0,0H160.12Z"/>
      <rect class="cls-7" x="179.29" y="380.07" height="30.91"/>
      <rect class="cls-7" x="179.29" y="339.51" height="19.03"/>
      <polygon class="cls-7" points="179.29 374.21 179.29 377.24 179.29 377.24 179.29 374.21 179.29 374.21"/>
      <path class="cls-9" d="M160.12,339.38l-15.51-15.51a51.64,51.64,0,0,0-14.33,1.33l14.18,14.18Z"/>
      <polygon class="cls-9" points="179.29 374.21 179.29 358.54 160.26 339.51 144.59 339.51 179.29 374.21"/>
      <path class="cls-9" d="M179.29,374.21l14.15,14.15a54.54,54.54,0,0,0,1.09-14.58l-15.24-15.24Z"/>
      <polygon class="cls-9" points="160.26 339.51 160.12 339.38 144.46 339.38 144.59 339.51 160.26 339.51"/>
      <polygon class="cls-9" points="179.29 374.21 179.29 374.21 179.29 358.55 179.29 358.54 179.29 374.21"/>
      <path class="cls-9" d="M179.29,377.24v2.83L192.23,393c.23-.73.43-1.47.63-2.2Z"/>
      <path class="cls-9" d="M141.43,339.38l-13.55-13.56c-.73.21-1.45.44-2.16.68l12.88,12.88Z"/>
      <polygon class="cls-9" points="179.29 377.24 141.57 339.51 138.74 339.51 179.29 380.07 179.29 377.24"/>
      <polygon class="cls-9" points="141.43 339.38 138.6 339.38 138.74 339.51 141.57 339.51 141.43 339.38"/>
      <polygon class="cls-9" points="179.29 380.07 179.29 380.07 179.29 377.24 179.29 377.24 179.29 380.07"/>
    </g>
  </g>
  <g>
    <path class="cls-7" d="M190.72,215.29,54,78.54a1.63,1.63,0,0,1-.27-1.82L70.55,37.09a1.93,1.93,0,0,1,3-.9L210.29,173a1.62,1.62,0,0,1,.27,1.81l-16.85,39.63A1.93,1.93,0,0,1,190.72,215.29Z"/>
    <g>
      <polygon class="cls-10" points="74.54 44 69.1 58.61 90.78 80.29 96.21 65.67 74.54 44"/>
      <polygon class="cls-11" points="127.74 97.41 122.31 112.03 143.98 133.7 149.42 119.09 127.74 97.41"/>
      <polygon class="cls-12" points="120.47 117.55 115.03 132.17 136.71 153.84 142.14 139.23 120.47 117.55"/>
      <polygon class="cls-13" points="94.1 91.39 88.66 106 110.34 127.68 115.77 113.07 94.1 91.39"/>
      <polygon class="cls-14" points="147.3 144.81 141.87 159.42 163.54 181.09 168.98 166.48 147.3 144.81"/>
      <polygon class="cls-15" points="101.37 71.25 95.94 85.86 117.61 107.54 123.05 92.93 101.37 71.25"/>
      <polygon class="cls-16" points="67.27 64.14 61.83 78.75 83.51 100.43 88.94 85.82 67.27 64.14"/>
      <polygon class="cls-17" points="180.94 150.82 175.51 165.44 197.18 187.11 202.62 172.5 180.94 150.82"/>
      <polygon class="cls-18" points="173.67 170.97 168.24 185.58 189.91 207.25 195.35 192.64 173.67 170.97"/>
      <polygon class="cls-19" points="154.57 124.66 149.14 139.28 170.81 160.95 176.25 146.34 154.57 124.66"/>
    </g>
  </g>
  <g>
    <path class="cls-7" d="M452.51,477.08,315.75,340.32a1.63,1.63,0,0,1-.26-1.81l16.85-39.63a1.92,1.92,0,0,1,3-.9L472.08,434.73a1.63,1.63,0,0,1,.26,1.82l-16.85,39.63A1.92,1.92,0,0,1,452.51,477.08Z"/>
    <g>
      <polygon class="cls-20" points="336.32 305.79 330.89 320.4 352.56 342.07 358 327.46 336.32 305.79"/>
      <polygon class="cls-21" points="389.53 359.2 384.09 373.81 405.77 395.49 411.2 380.87 389.53 359.2"/>
      <polygon class="cls-22" points="382.25 379.34 376.82 393.95 398.5 415.63 403.93 401.01 382.25 379.34"/>
      <polygon class="cls-23" points="355.88 353.18 350.45 367.79 372.13 389.47 377.56 374.86 355.88 353.18"/>
      <polygon class="cls-24" points="409.09 406.59 403.65 421.2 425.33 442.88 430.76 428.27 409.09 406.59"/>
      <polygon class="cls-25" points="363.16 333.04 357.72 347.65 379.4 369.33 384.83 354.71 363.16 333.04"/>
      <polygon class="cls-26" points="329.05 325.93 323.62 340.54 345.29 362.22 350.73 347.6 329.05 325.93"/>
      <polygon class="cls-27" points="442.73 412.61 437.3 427.22 458.97 448.9 464.4 434.29 442.73 412.61"/>
      <polygon class="cls-28" points="435.46 432.75 430.02 447.36 451.7 469.04 457.13 454.43 435.46 432.75"/>
      <polygon class="cls-29" points="416.36 386.45 410.93 401.06 432.6 422.74 438.04 408.13 416.36 386.45"/>
    </g>
  </g>
  <circle class="cls-9" cx="105.07" cy="414.57" r="4.62"/>
</svg>
