<svg id="Layer_1" data-name="Layer 1" xmlns="http://www.w3.org/2000/svg" xmlns:xlink="http://www.w3.org/1999/xlink" viewBox="0 0 418.96 441.74"><defs><style>.cls-1,.cls-7{fill:#565656;}.cls-2,.cls-3,.cls-6,.cls-8{fill:none;}.cls-2,.cls-3,.cls-4,.cls-6,.cls-9{stroke:#b5aeae;}.cls-10,.cls-11,.cls-12,.cls-13,.cls-14,.cls-15,.cls-16,.cls-17,.cls-18,.cls-19,.cls-2,.cls-20,.cls-21,.cls-22,.cls-23,.cls-24,.cls-25,.cls-26,.cls-27,.cls-28,.cls-29,.cls-3,.cls-4,.cls-5,.cls-6,.cls-7,.cls-9{stroke-miterlimit:10;}.cls-10,.cls-11,.cls-12,.cls-13,.cls-14,.cls-15,.cls-16,.cls-17,.cls-18,.cls-19,.cls-2,.cls-20,.cls-21,.cls-22,.cls-23,.cls-24,.cls-25,.cls-26,.cls-27,.cls-28,.cls-29,.cls-3,.cls-4,.cls-6,.cls-7{stroke-width:4px;}.cls-3{stroke-dasharray:17 5;}.cls-4,.cls-9{fill:#b5aeae;}.cls-10,.cls-11,.cls-12,.cls-13,.cls-14,.cls-15,.cls-16,.cls-17,.cls-18,.cls-19,.cls-20,.cls-21,.cls-22,.cls-23,.cls-24,.cls-25,.cls-26,.cls-27,.cls-28,.cls-29,.cls-5,.cls-7{stroke:#565656;}.cls-5{stroke-width:5.5px;fill:url(#linear-gradient);}.cls-6{stroke-linecap:round;stroke-dasharray:0 17.57;}.cls-10{fill:url(#linear-gradient-2);}.cls-11{fill:url(#linear-gradient-3);}.cls-12{fill:url(#linear-gradient-4);}.cls-13{fill:url(#linear-gradient-5);}.cls-14{fill:url(#linear-gradient-6);}.cls-15{fill:url(#linear-gradient-7);}.cls-16{fill:url(#linear-gradient-8);}.cls-17{fill:url(#linear-gradient-9);}.cls-18{fill:url(#linear-gradient-10);}.cls-19{fill:url(#linear-gradient-11);}.cls-20{fill:url(#linear-gradient-12);}.cls-21{fill:url(#linear-gradient-13);}.cls-22{fill:url(#linear-gradient-14);}.cls-23{fill:url(#linear-gradient-15);}.cls-24{fill:url(#linear-gradient-16);}.cls-25{fill:url(#linear-gradient-17);}.cls-26{fill:url(#linear-gradient-18);}.cls-27{fill:url(#linear-gradient-19);}.cls-28{fill:url(#linear-gradient-20);}.cls-29{fill:url(#linear-gradient-21);}</style><linearGradient id="linear-gradient" x1="226.26" y1="182.97" x2="215.45" y2="159.08" gradientUnits="userSpaceOnUse"><stop offset="0" stop-color="#fff"/><stop offset="0.04" stop-color="#dbeffd"/><stop offset="0.09" stop-color="#b6defb"/><stop offset="0.15" stop-color="#96d0fa"/><stop offset="0.21" stop-color="#7bc4f8"/><stop offset="0.28" stop-color="#64baf7"/><stop offset="0.36" stop-color="#54b2f6"/><stop offset="0.47" stop-color="#48adf5"/><stop offset="0.61" stop-color="#41aaf5"/><stop offset="1" stop-color="#3fa9f5"/></linearGradient><linearGradient id="linear-gradient-2" x1="36.84" y1="43.9" x2="21.58" y2="9.3" gradientUnits="userSpaceOnUse"><stop offset="0" stop-color="#d6d6d6"/><stop offset="0.02" stop-color="#c7d3da"/><stop offset="0.07" stop-color="#a8cde3"/><stop offset="0.13" stop-color="#8cc7eb"/><stop offset="0.19" stop-color="#76c3f1"/><stop offset="0.27" stop-color="#65bff6"/><stop offset="0.36" stop-color="#5abdfa"/><stop offset="0.49" stop-color="#53bbfb"/><stop offset="0.85" stop-color="#51bbfc"/></linearGradient><linearGradient id="linear-gradient-3" x1="90.04" y1="97.31" x2="74.79" y2="62.71" xlink:href="#linear-gradient-2"/><linearGradient id="linear-gradient-4" x1="82.77" y1="117.45" x2="67.51" y2="82.85" xlink:href="#linear-gradient-2"/><linearGradient id="linear-gradient-5" x1="56.4" y1="91.29" x2="41.14" y2="56.69" xlink:href="#linear-gradient-2"/><linearGradient id="linear-gradient-6" x1="109.6" y1="144.7" x2="94.35" y2="110.1" xlink:href="#linear-gradient-2"/><linearGradient id="linear-gradient-7" x1="63.67" y1="71.15" x2="48.42" y2="36.55" xlink:href="#linear-gradient-2"/><linearGradient id="linear-gradient-8" x1="29.56" y1="64.04" x2="14.31" y2="29.44" xlink:href="#linear-gradient-2"/><linearGradient id="linear-gradient-9" x1="143.24" y1="150.72" x2="127.99" y2="116.12" xlink:href="#linear-gradient-2"/><linearGradient id="linear-gradient-10" x1="135.97" y1="170.86" x2="120.72" y2="136.26" xlink:href="#linear-gradient-2"/><linearGradient id="linear-gradient-11" x1="116.87" y1="124.56" x2="101.62" y2="89.96" xlink:href="#linear-gradient-2"/><linearGradient id="linear-gradient-12" x1="298.62" y1="305.68" x2="283.37" y2="271.08" xlink:href="#linear-gradient-2"/><linearGradient id="linear-gradient-13" x1="351.83" y1="359.1" x2="336.57" y2="324.49" xlink:href="#linear-gradient-2"/><linearGradient id="linear-gradient-14" x1="344.55" y1="379.24" x2="329.3" y2="344.64" xlink:href="#linear-gradient-2"/><linearGradient id="linear-gradient-15" x1="318.18" y1="353.08" x2="302.93" y2="318.47" xlink:href="#linear-gradient-2"/><linearGradient id="linear-gradient-16" x1="371.38" y1="406.49" x2="356.13" y2="371.89" xlink:href="#linear-gradient-2"/><linearGradient id="linear-gradient-17" x1="325.46" y1="332.94" x2="310.2" y2="298.33" xlink:href="#linear-gradient-2"/><linearGradient id="linear-gradient-18" x1="291.35" y1="325.82" x2="276.1" y2="291.22" xlink:href="#linear-gradient-2"/><linearGradient id="linear-gradient-19" x1="405.03" y1="412.51" x2="389.77" y2="377.91" xlink:href="#linear-gradient-2"/><linearGradient id="linear-gradient-20" x1="397.75" y1="432.65" x2="382.5" y2="398.05" xlink:href="#linear-gradient-2"/><linearGradient id="linear-gradient-21" x1="378.66" y1="386.35" x2="363.4" y2="351.75" xlink:href="#linear-gradient-2"/></defs><title>safari-pinned-tab</title><path class="cls-1" d="M354.3,223.44l-8.51-8.51,8.88-8.88a8.11,8.11,0,0,0,0-11.49L325.14,165a8.13,8.13,0,0,0-11.49,0l-8.89,8.89-9.56-9.57a14.29,14.29,0,0,0-20.21,0L157.65,281.68a14.29,14.29,0,0,0,0,20.21l59.1,59.1a14.28,14.28,0,0,0,20.2,0L354.3,243.65A14.29,14.29,0,0,0,354.3,223.44Z" transform="translate(-53.55 -35.77)"/><rect class="cls-1" x="121.27" y="258.16" width="295.57" height="9" transform="translate(210.99 -149.08) rotate(45)"/><line class="cls-2" x1="103.78" y1="246.23" x2="183.55" y2="325.08"/><line class="cls-3" x1="110.19" y1="239.9" x2="189.95" y2="318.74"/><rect class="cls-4" x="236.92" y="202.49" width="112.16" height="46.3" transform="translate(191.82 -176.86) rotate(45)"/><circle class="cls-5" cx="221.06" cy="171.49" r="16.78"/><circle class="cls-6" cx="221.06" cy="171.49" r="16.78"/><g id="antenne"><ellipse class="cls-1" cx="51.52" cy="378.8" rx="8.59" ry="8.72"/><line class="cls-7" x1="55.34" y1="375.21" x2="88.69" y2="341.36"/><polygon class="cls-8" points="55.34 375.21 122.04 375.21 55.34 307.51 55.34 375.21"/><path class="cls-1" d="M125.72,326.5a52,52,0,0,0-20.62,12.88h33.5Z" transform="translate(-53.55 -35.77)"/><path class="cls-1" d="M144.46,339.38,130.28,325.2c-.81.19-1.61.4-2.4.62l13.55,13.56Z" transform="translate(-53.55 -35.77)"/><path class="cls-1" d="M179.24,339.38a51.91,51.91,0,0,0-34.63-15.51l15.51,15.51Z" transform="translate(-53.55 -35.77)"/><polygon class="cls-1" points="88.02 303.75 125.75 341.47 125.75 338.44 91.05 303.75 88.02 303.75"/><polygon class="cls-1" points="125.75 303.75 106.72 303.75 125.75 322.78 125.75 303.75"/><polygon class="cls-1" points="85.19 303.75 55.34 303.75 55.34 307.51 122.04 375.21 125.75 375.21 125.75 344.3 85.19 303.75"/><path class="cls-1" d="M179.29,411h0v3.73A53.15,53.15,0,0,0,192.23,393l-12.94-12.94Z" transform="translate(-53.55 -35.77)"/><path class="cls-1" d="M179.29,339.51v19l15.24,15.24a53.43,53.43,0,0,0-15.24-34.35v.08Z" transform="translate(-53.55 -35.77)"/><polygon class="cls-1" points="125.73 378.96 125.74 378.95 125.72 378.95 125.73 378.96"/><path class="cls-1" d="M179.29,377.24l13.57,13.57c.21-.82.4-1.63.58-2.45l-14.15-14.15Z" transform="translate(-53.55 -35.77)"/><polygon class="cls-7" points="55.34 375.21 55.34 307.51 51.52 303.64 51.52 378.95 125.72 378.95 122.04 375.21 55.34 375.21"/><polygon class="cls-7" points="91.05 303.75 90.91 303.61 87.88 303.61 88.02 303.75 91.05 303.75"/><polygon class="cls-7" points="122.04 375.21 125.72 378.95 125.74 378.95 125.75 378.94 125.75 375.21 122.04 375.21"/><path class="cls-7" d="M108.88,339.51h29.86l-.14-.13H105.1l0,0,3.81,3.87Z" transform="translate(-53.55 -35.77)"/><path class="cls-7" d="M160.26,339.51h19v-.08l0,0,0,0H160.12Z" transform="translate(-53.55 -35.77)"/><rect class="cls-7" x="125.74" y="344.3" height="30.91"/><rect class="cls-7" x="125.74" y="303.75" height="19.03"/><polygon class="cls-7" points="125.75 338.44 125.75 341.47 125.75 341.47 125.75 338.44 125.75 338.44"/><path class="cls-9" d="M160.12,339.38l-15.51-15.51a51.64,51.64,0,0,0-14.33,1.33l14.18,14.18Z" transform="translate(-53.55 -35.77)"/><polygon class="cls-9" points="125.75 338.44 125.75 322.78 106.72 303.75 91.05 303.75 125.75 338.44"/><path class="cls-9" d="M179.29,374.21l14.15,14.15a54.54,54.54,0,0,0,1.09-14.58l-15.24-15.24Z" transform="translate(-53.55 -35.77)"/><polygon class="cls-9" points="106.72 303.75 106.58 303.61 90.91 303.61 91.05 303.75 106.72 303.75"/><polygon class="cls-9" points="125.75 338.44 125.75 338.44 125.75 322.78 125.75 322.78 125.75 338.44"/><path class="cls-9" d="M179.29,377.24v2.83L192.23,393c.23-.73.43-1.47.63-2.2Z" transform="translate(-53.55 -35.77)"/><path class="cls-9" d="M141.43,339.38l-13.55-13.56c-.73.21-1.45.44-2.16.68l12.88,12.88Z" transform="translate(-53.55 -35.77)"/><polygon class="cls-9" points="125.75 341.47 88.02 303.75 85.19 303.75 125.75 344.3 125.75 341.47"/><polygon class="cls-9" points="87.88 303.61 85.05 303.61 85.19 303.75 88.02 303.75 87.88 303.61"/></g><path class="cls-7" d="M190.72,215.29,54,78.54a1.63,1.63,0,0,1-.27-1.82L70.55,37.09a1.93,1.93,0,0,1,3-.9L210.29,173a1.62,1.62,0,0,1,.27,1.81l-16.85,39.63A1.93,1.93,0,0,1,190.72,215.29Z" transform="translate(-53.55 -35.77)"/><polygon class="cls-10" points="20.99 8.23 15.56 22.84 37.23 44.52 42.67 29.91 20.99 8.23"/><polygon class="cls-11" points="74.19 61.64 68.76 76.26 90.44 97.93 95.87 83.32 74.19 61.64"/><polygon class="cls-12" points="66.92 81.78 61.49 96.4 83.16 118.07 88.6 103.46 66.92 81.78"/><polygon class="cls-13" points="40.55 55.63 35.12 70.24 56.79 91.91 62.23 77.3 40.55 55.63"/><polygon class="cls-14" points="93.75 109.04 88.32 123.65 110 145.33 115.43 130.71 93.75 109.04"/><polygon class="cls-15" points="47.83 35.48 42.39 50.1 64.07 71.77 69.5 57.16 47.83 35.48"/><polygon class="cls-16" points="13.72 28.37 8.29 42.99 29.96 64.66 35.4 50.05 13.72 28.37"/><polygon class="cls-17" points="127.4 115.06 121.96 129.67 143.64 151.35 149.07 136.73 127.4 115.06"/><polygon class="cls-18" points="120.12 135.2 114.69 149.81 136.37 171.49 141.8 156.87 120.12 135.2"/><polygon class="cls-19" points="101.03 88.9 95.59 103.51 117.27 125.19 122.7 110.57 101.03 88.9"/><path class="cls-7" d="M452.51,477.08,315.75,340.32a1.63,1.63,0,0,1-.26-1.81l16.85-39.63a1.92,1.92,0,0,1,3-.9L472.08,434.73a1.63,1.63,0,0,1,.26,1.82l-16.85,39.63A1.92,1.92,0,0,1,452.51,477.08Z" transform="translate(-53.55 -35.77)"/><polygon class="cls-20" points="282.78 270.02 277.34 284.63 299.02 306.31 304.45 291.69 282.78 270.02"/><polygon class="cls-21" points="335.98 323.43 330.55 338.04 352.22 359.72 357.66 345.11 335.98 323.43"/><polygon class="cls-22" points="328.71 343.57 323.27 358.19 344.95 379.86 350.38 365.25 328.71 343.57"/><polygon class="cls-23" points="302.34 317.41 296.9 332.02 318.58 353.7 324.01 339.09 302.34 317.41"/><polygon class="cls-24" points="355.54 370.82 350.11 385.44 371.78 407.11 377.22 392.5 355.54 370.82"/><polygon class="cls-25" points="309.61 297.27 304.18 311.88 325.85 333.56 331.29 318.95 309.61 297.27"/><polygon class="cls-26" points="275.5 290.16 270.07 304.77 291.75 326.45 297.18 311.83 275.5 290.16"/><polygon class="cls-27" points="389.18 376.84 383.75 391.46 405.43 413.13 410.86 398.52 389.18 376.84"/><polygon class="cls-28" points="381.91 396.98 376.48 411.6 398.15 433.27 403.59 418.66 381.91 396.98"/><polygon class="cls-29" points="362.81 350.68 357.38 365.3 379.06 386.97 384.49 372.36 362.81 350.68"/><circle class="cls-9" cx="51.52" cy="378.8" r="4.62"/></svg>